<mxfile host="app.diagrams.net" modified="2022-05-26T12:47:13.854Z" agent="5.0 (Windows)" etag="b4KAfdOxWSH0Gb1QeMmP" version="18.1.2" type="github">
  <diagram id="r6R895OPuJFXJWQHmMXZ" name="Page-1">
    <mxGraphModel dx="813" dy="469" grid="1" gridSize="10" guides="1" tooltips="1" connect="1" arrows="1" fold="1" page="1" pageScale="1" pageWidth="827" pageHeight="1169" math="0" shadow="1">
      <root>
        <mxCell id="0" />
        <mxCell id="1" parent="0" />
        <mxCell id="M7rZ6jn-sLOGywj5IBlx-25" value="" style="strokeColor=#666666;html=1;verticalLabelPosition=bottom;labelBackgroundColor=#ffffff;verticalAlign=top;outlineConnect=0;shadow=0;dashed=0;shape=mxgraph.rackGeneral.container;fillColor2=#f4f4f4;container=1;collapsible=0;childLayout=rack;allowGaps=1;marginLeft=9;marginRight=9;marginTop=21;marginBottom=22;textColor=#666666;numDisp=off;rounded=0;" parent="1" vertex="1">
          <mxGeometry x="300" y="70" width="180" height="500" as="geometry" />
        </mxCell>
        <mxCell id="M7rZ6jn-sLOGywj5IBlx-33" value="" style="html=1;verticalLabelPosition=bottom;verticalAlign=top;outlineConnect=0;shadow=0;dashed=0;shape=mxgraph.rack.hpe_aruba.switches.jl624a_aruba_8325_32y8c_f2b_front;rounded=0;" parent="M7rZ6jn-sLOGywj5IBlx-25" vertex="1">
          <mxGeometry x="9" y="50" width="162" height="15" as="geometry" />
        </mxCell>
        <mxCell id="M7rZ6jn-sLOGywj5IBlx-32" value="" style="group;rounded=0;" parent="M7rZ6jn-sLOGywj5IBlx-25" vertex="1" connectable="0">
          <mxGeometry x="9" y="81.4" width="162" height="249.99999999999997" as="geometry" />
        </mxCell>
        <mxCell id="M7rZ6jn-sLOGywj5IBlx-26" value="" style="html=1;verticalLabelPosition=bottom;verticalAlign=top;outlineConnect=0;shadow=0;dashed=0;shape=mxgraph.rack.hpe_aruba.switches.r0x42a_aruba_6400_24p_10gt_4sfp56_module;rounded=0;" parent="M7rZ6jn-sLOGywj5IBlx-32" vertex="1">
          <mxGeometry width="162" height="15" as="geometry" />
        </mxCell>
        <mxCell id="M7rZ6jn-sLOGywj5IBlx-10" value="" style="strokeColor=#666666;html=1;labelPosition=right;align=left;spacingLeft=15;shadow=0;dashed=0;outlineConnect=0;shape=mxgraph.rackGeneral.horCableDuct;rounded=0;" parent="M7rZ6jn-sLOGywj5IBlx-32" vertex="1">
          <mxGeometry y="19" width="162" height="15" as="geometry" />
        </mxCell>
        <mxCell id="M7rZ6jn-sLOGywj5IBlx-5" value="" style="strokeColor=#666666;html=1;labelPosition=right;align=left;spacingLeft=15;shadow=0;dashed=0;outlineConnect=0;shape=mxgraph.rack.general.cat5e_rack_mount_patch_panel_24_ports;rounded=0;" parent="M7rZ6jn-sLOGywj5IBlx-32" vertex="1">
          <mxGeometry y="34" width="162" height="15" as="geometry" />
        </mxCell>
        <mxCell id="M7rZ6jn-sLOGywj5IBlx-27" value="" style="html=1;verticalLabelPosition=bottom;verticalAlign=top;outlineConnect=0;shadow=0;dashed=0;shape=mxgraph.rack.hpe_aruba.switches.r0x42a_aruba_6400_24p_10gt_4sfp56_module;rounded=0;" parent="M7rZ6jn-sLOGywj5IBlx-32" vertex="1">
          <mxGeometry y="49" width="162" height="15" as="geometry" />
        </mxCell>
        <mxCell id="M7rZ6jn-sLOGywj5IBlx-11" value="" style="strokeColor=#666666;html=1;labelPosition=right;align=left;spacingLeft=15;shadow=0;dashed=0;outlineConnect=0;shape=mxgraph.rackGeneral.horCableDuct;rounded=0;" parent="M7rZ6jn-sLOGywj5IBlx-32" vertex="1">
          <mxGeometry y="70" width="162" height="15" as="geometry" />
        </mxCell>
        <mxCell id="M7rZ6jn-sLOGywj5IBlx-6" value="" style="strokeColor=#666666;html=1;labelPosition=right;align=left;spacingLeft=15;shadow=0;dashed=0;outlineConnect=0;shape=mxgraph.rack.general.cat5e_rack_mount_patch_panel_24_ports;rounded=0;" parent="M7rZ6jn-sLOGywj5IBlx-32" vertex="1">
          <mxGeometry y="85" width="162" height="15" as="geometry" />
        </mxCell>
        <mxCell id="M7rZ6jn-sLOGywj5IBlx-28" value="" style="html=1;verticalLabelPosition=bottom;verticalAlign=top;outlineConnect=0;shadow=0;dashed=0;shape=mxgraph.rack.hpe_aruba.switches.r0x42a_aruba_6400_24p_10gt_4sfp56_module;rounded=0;" parent="M7rZ6jn-sLOGywj5IBlx-32" vertex="1">
          <mxGeometry y="100" width="162" height="15" as="geometry" />
        </mxCell>
        <mxCell id="M7rZ6jn-sLOGywj5IBlx-12" value="" style="strokeColor=#666666;html=1;labelPosition=right;align=left;spacingLeft=15;shadow=0;dashed=0;outlineConnect=0;shape=mxgraph.rackGeneral.horCableDuct;rounded=0;" parent="M7rZ6jn-sLOGywj5IBlx-32" vertex="1">
          <mxGeometry y="120" width="162" height="15" as="geometry" />
        </mxCell>
        <mxCell id="M7rZ6jn-sLOGywj5IBlx-7" value="" style="strokeColor=#666666;html=1;labelPosition=right;align=left;spacingLeft=15;shadow=0;dashed=0;outlineConnect=0;shape=mxgraph.rack.general.cat5e_rack_mount_patch_panel_24_ports;rounded=0;" parent="M7rZ6jn-sLOGywj5IBlx-32" vertex="1">
          <mxGeometry y="135" width="162" height="15" as="geometry" />
        </mxCell>
        <mxCell id="M7rZ6jn-sLOGywj5IBlx-29" value="" style="html=1;verticalLabelPosition=bottom;verticalAlign=top;outlineConnect=0;shadow=0;dashed=0;shape=mxgraph.rack.hpe_aruba.switches.r0x42a_aruba_6400_24p_10gt_4sfp56_module;rounded=0;" parent="M7rZ6jn-sLOGywj5IBlx-32" vertex="1">
          <mxGeometry y="150" width="162" height="15" as="geometry" />
        </mxCell>
        <mxCell id="M7rZ6jn-sLOGywj5IBlx-13" value="" style="strokeColor=#666666;html=1;labelPosition=right;align=left;spacingLeft=15;shadow=0;dashed=0;outlineConnect=0;shape=mxgraph.rackGeneral.horCableDuct;rounded=0;" parent="M7rZ6jn-sLOGywj5IBlx-32" vertex="1">
          <mxGeometry y="170" width="162" height="15" as="geometry" />
        </mxCell>
        <mxCell id="M7rZ6jn-sLOGywj5IBlx-8" value="" style="strokeColor=#666666;html=1;labelPosition=right;align=left;spacingLeft=15;shadow=0;dashed=0;outlineConnect=0;shape=mxgraph.rack.general.cat5e_rack_mount_patch_panel_24_ports;rounded=0;" parent="M7rZ6jn-sLOGywj5IBlx-32" vertex="1">
          <mxGeometry y="185" width="162" height="15" as="geometry" />
        </mxCell>
        <mxCell id="M7rZ6jn-sLOGywj5IBlx-30" value="" style="html=1;verticalLabelPosition=bottom;verticalAlign=top;outlineConnect=0;shadow=0;dashed=0;shape=mxgraph.rack.hpe_aruba.switches.r0x42a_aruba_6400_24p_10gt_4sfp56_module;rounded=0;" parent="M7rZ6jn-sLOGywj5IBlx-32" vertex="1">
          <mxGeometry y="200" width="162" height="15" as="geometry" />
        </mxCell>
        <mxCell id="M7rZ6jn-sLOGywj5IBlx-24" value="" style="strokeColor=#666666;html=1;labelPosition=right;align=left;spacingLeft=15;shadow=0;dashed=0;outlineConnect=0;shape=mxgraph.rackGeneral.horCableDuct;rounded=0;" parent="M7rZ6jn-sLOGywj5IBlx-32" vertex="1">
          <mxGeometry y="219.99999999999997" width="162" height="15" as="geometry" />
        </mxCell>
        <mxCell id="M7rZ6jn-sLOGywj5IBlx-9" value="" style="strokeColor=#666666;html=1;labelPosition=right;align=left;spacingLeft=15;shadow=0;dashed=0;outlineConnect=0;shape=mxgraph.rack.general.cat5e_rack_mount_patch_panel_24_ports;rounded=0;" parent="M7rZ6jn-sLOGywj5IBlx-32" vertex="1">
          <mxGeometry y="234.99999999999997" width="162" height="15" as="geometry" />
        </mxCell>
        <mxCell id="g2PJhtoxlEn0fMG5Q2g--7" value="" style="shape=stencil(lVjZUhsxEPwav07pGF3PhPwHVZjgCsGUIdffpzcuLavZdWPenM000lw9PdrFm9fHu5f9LrjXt9Px+/734f7tcRe/7EI4PD/uT4c3/NrF2128eTie9t9Ox5/P9+d/v9xNltOvH8df01/4c8YF8X4CBff3/MGJc/8/fD2bPx2eF+ZRfPmEuUpOnzCvop8x9168s/aN2OM62diHSuyrhGjstVy2D16qvU9JxD6LhsHeS/Qk+MH6GyQosUc8dbCPPcDb2VIpdbDHh3zZPiF8432SNBLPlCSPxVa6Q5v22Ukb/36l8clZ/Hj/Jilcti9O6ngf7ySRABW13YISjMSDkntBLgAspKWImhOQdJLjUqVEC0gkSKVJCxbAslbh4tjznpdRDVKjBTRyparizJWUNlpNtvB8Eh8JIEuKFtDYCUXqSEW+UG6pzTIj2CMSQHOSjdNNCgN4aWM3gy4CA8QekxmAzJBMN5T3WK0gACXV2pLtB1Aaq1YATEejpR0pjYbEjWFFT2fmdLGcHT0leQDKmGnQbCWl0ap4A1DaDwAkAwAtsChVm+mISxIia02iATQJHJDHPKijVAlAHfOgvvPI9ux08+yeEbGPu6sRic5/XKqMbmvmxdE6rcyA2sntykwozuQAw9/Jd2K4svxS6CV/qSPaKGJSpFS27jnMYdrVarkvZakc4MyV0NWs51bMlFpn9G1AsAUObaCMN7zNQ/adby/RsZnUGWORjZTax+wM0E4Ml2ZQMSdgjLEZpLb4IHDYSFkP3lx6n28DoE+ND5VOaqgN00DQUEySrQVQmUXyNiB2MTIDYh8y2wDwkDlBuQBylr9Lok4jJnFsIKi0D3SoCeuk0hhAVz40Wnw59pk2K2MvjhQfqj+NLYpicaT40JB1LL4a6aRGy/tgAWz7AamYFkXBs7AmXfmglO7BpHF1AqNKnaM+A9CibGMqXYEtAEoSp6uNGADGSzrL/wWgsQ299QVjBmRKM9AWKVhAJk5H3HgkAahl1qLQR8FbQCLzAQrM+lCproTGMzIRAEYz0a2cblTEQXbGsTQwMdjy+i5sFwC2+kE61/FKGGKMvbFtp5GX3sfkNkDtjoJBzJaa6bknWEBhJwSrBKANlPngreYDoLEoua4sZkCiyhVblWnRSRCxVyLQvfEh9y/bgGKfWQAohAR87qQyA3gDYVm1YcWZ7OUqWrne5oV2GxAkm7DOj1+X3t60WQAbu97ZKQoA3XdXQWp0YlW7vE5bEXvM6ay4sE9s5loJOq0fpPCSfdybdigSIF0FtFFZEi3lLRao7dbpm8u1AG+l2Ace+FWV8gg5CSt7loHVfjitZ0NF4Mf7Q/fD4enp/E6+/H/7MI5P50f1ePsP);fillColor=none;strokeColor=#12FF41;" vertex="1" parent="1">
          <mxGeometry x="459.33333333333337" y="161.66666666666669" width="31.541666666666668" height="44.625" as="geometry" />
        </mxCell>
        <mxCell id="g2PJhtoxlEn0fMG5Q2g--8" value="" style="shape=stencil(lVjLUiMxDPyaXFW2ZUv2mWX/gyrCklqWUAH28ferqeAh1iQ95DbJqD221GpJ3vDN6+Pdy3aTwuvbYf9z+2d3//a44W+blHbPj9vD7s2eNny74ZuH/WH747B/f74//n65myynp1/739MKf4+4QCFMoBT+uT++H82fds+DeStXmDOldoW5Urxm9UaBrzCPiYJcY18oVW/fgH0lVWf/scBZ+5RIorMvAuyF8uieSDEB54f++tP+Y4Pn7Zlk5EKigtbX7o5uz8Rg/9mON/onEwP/5OzpUChHYK9U8mAvVPiyfQkk436UNAN7Jh3jVamB8xYhdfEKPYJnARKIXcASMTixMLUxAjFTAiEWJXFbEkrAR2oUG3PMWB5BEmjuPp9JZFkAvKrqvWS0S+ALNZA6mtqhgVsrd5rNAOnKcR5Q+nozQHuqngcI1VFZTJvgGarfEpujAZdq85G2bGWkjZHKSFYukHwtURuzx/JbQXq23Ikwp7PRGxy6FeLRrZmhADTxZ8gCM7SZAozUKFiyW+1OnAFWskAcDFBHL1mWo8C15ktgwaphAHEqFrtuXgK00UsyC9X5OhUWRV9Kl8Kv7kl7LC8BottTgyk3BWJ0kwaqiN+LUGvCZ1iQyaQqIzIt6KoC660lRHBfUBiINqv7DMCy0Sxwo2yYGArwUlXKo5dqpIqULJOM8l1NF5BWRhK3JXMDoIZWyqNWTnILEkJLT7AZYI0QiLTVLKdk5gYBbpXqxdX0GXlJjEvu0I0q8JLk3kl1QAuQrZJ8gTBBz4B8pXVVmQEJClMxbrIHKPpCoTJ6qTFsBUxKXQIZQNCWgg/clFLArbn6ZsMAqGGy+uF0yQAFnMEqlDYPQFUxJ6+ta4DgS9AKgOuCSysA8eq9Bih+sFoDcOfmVwGzCn0VEHwZNUAFCWS9uThA6ePfpemqBQ9gUB9sGvFbsioKEsjGIzcfGqAB8k2NsEsggRPWNJ5HD0ANU2y++ba6mtBMXL3cT4UYxCHqIg5KFdQHG0iqA9Q+g1wChAUAzYk217N6AKqiNlSJeICimwBeCJmVGOQlU1IHsH4JAVIfqk4ASO5j7EX2BICmphj87ccKYNHorthX35qYPeop1fdvZo/6N/G3K2YPrwMWktR6L3TB3tOuwfqZe9NyYo+aDO591+ftweplW7oKkHwLvQTYw+fN4cPu6el48Xj63t802l/HW0q+/Q8=);fillColor=none;strokeColor=#12FF41;" vertex="1" parent="1">
          <mxGeometry x="458.33333333333337" y="212" width="46.625" height="44.666666666666664" as="geometry" />
        </mxCell>
        <mxCell id="g2PJhtoxlEn0fMG5Q2g--9" value="" style="shape=stencil(lVfZctswDPwavWJIgBee0/Q/MhOn9jS1M47T4+8LVaUqUtI2eZMtrAgsFgcHuXs9PrwcBnavt+vl6+HH6fF2HOTTwHw6Hw/X082eBrkf5O7pcj18uV7ezo/T75eH0XJ8+nb5Pn7h54Rj4jSC2P2a/nDk3J8/Pk/mz6fzwjxQKh8w946ifsQ+r90Rv2/PG9/PAuwTKTf2nmLctxchDY09Uw6AHk/c+hPIA/9DodR+P5IC/2Ok0vKfq4Ob9okp5TZeR8wAUFYApggylo2h1iNvGkGAQtwBEgmIuXjKLaemkr8sbANC1cAMUArohNSzajIqIIZSSGILYPIZALTXKQtJ2geoo+RbQKAIMq2+CnMGRFgKakpuS8205IBWVSh3LBXyCgChkjgDlBKoNjWPW4B4EpAHTRRaWq1gHQo61zTNAHMSuZR7WsVYQnmYOZkBSoxcKn0erImgelD7XiuNIFDeOqt/BsSq3z1AbOUdMgUMSF0MisVnr9s8RK5tYQ9QWlpjgJ3Su3nSzIhMEdToBiK5qq93I6wdorJehZFy7W7vZDb7OiL3AL51KYc6Y/b057qRYu0V5S7V1xVQbOjisuZWTkWq5vc6jXQnpKqXvW6p3QlKAsacNXDX1pD1zwian82U0vYBczKiE3ydszMgkgdB59VqYkRHkIfM/a5hzSoBwCi1VkuWezRTTMyhA5i6QJVGrbvCAoDEF1NdjxaAAmi1NtGJzwCKNqxVAS2qdhuRejH974iwQROK2hq85h7AQN82QqQDFCrAJUkbqUb7ho1B1wWd8Qm+ToQFAK1ANvtdF4NNb8ASr+4CVkFoK7OFp7ucKJ5z43LeyTXUbXYbwBRWgIzvJ3kFQLPaNlW3AjCIwZbnXksB9hlbz3sthZqZbYBfaUkgS1rPX9gXMONWS9xoj/JcKV/YJ5CE1ZDWfl+yh3/346fT8/N0vV6+7+/T9td0F5f73w==);fillColor=none;strokeColor=#12FF41;" vertex="1" parent="1">
          <mxGeometry x="458.5" y="262.33333333333337" width="36.833333333333336" height="45.666666666666664" as="geometry" />
        </mxCell>
        <mxCell id="g2PJhtoxlEn0fMG5Q2g--10" value="" style="shape=stencil(lVjbUlsxDPyavGosyzc9U/ofzBCaTClhAvTy99VpxqexnCzwlpzsxpYlrdZnIzcvu7vn7SaGl9fj4fv21/7+dbeRL5sY90+77XH/ap82cruRm4fDcfvteHh7uj99f75bkMunH4efyz/8PvECxbyQYvjTH4Tw78HXE/xx/3QGZ9LPwIUyfwJeSIqDM4PNBMoeXyrAV49nyuk6PibSNOAjZRSt/VwHvPQFL+KTnUYb8IkqiDfV/nPHZ2og3pxJxv1X4giOn6mGAd9IwP+XTGWsBqUoAF+pNIdXVA7q9884wTX081gJOMM1+gjYnoAt1UTZERIFtEKhGkdCxjEohTHJS9mCLTWm5FZQyiDNTai5ssan1AqxjARc2K0Rj3mwSk3tOkGnTrBSFdAKytTGVrZaQnlQIRlXkEAV5EEt02PQ1t5wS9nnQYRqBoTS/28lZIoKCJWC05dCCjJtBJdpab3gLxOs4cfyNo2CiWu9XVZChBpjhOZWkP7kMkH7DFgJhQIoPiO4KZIazoNS0lFWmQrQMSOUMdMZC7cR6hh0tsygY1UvZKbNKGgO62RdGYkEBHGJUSkBoZmjML1lRJhybXoLV7ANjKkzvW2f6rlaKSKCeCkzvU2oXoPf0qK3SCxtA6PQmN6iKdoitTGGhmXAQqxjVzc81+3U1c113BHF9HvsCH3HuAkV9gSkrtk24KwAPtYs3rtppACCtqYP6glojpoO1eoJFeRhtm9GUNDVptbODls5BkSQXswfJVhDZk9gkIdlzE6EiAh5Kg1c3mYV6kRA5sFMtkwEVK3m+tURsCczf+R0yQhIBLh5Y6xYl3h2uuu5XSaU6ZSwTTQX6Xra7ASDUzKf2tQT0JRj8TNIsbbyWv1nhIKCttuk6+kGy9sIzgAZAdWS3Re4eYIim9iVd8XjK40JZfJ45L2rn7nLUAVnmqdKVVh4yd8QFV+xJlU9swWXm80P3HcW4D7wPxhwmCQSz+fg57nie8BkehQ74un9iOGRPoapy7DTW6feGR7dMmK/qZ11MboCrCbwKt4+/H859LB/fDy9Wzr/3b9MskenF1Fy+xc=);fillColor=none;strokeColor=#12FF41;" vertex="1" parent="1">
          <mxGeometry x="460.25" y="312.33333333333337" width="32.75" height="43.333333333333336" as="geometry" />
        </mxCell>
        <mxCell id="g2PJhtoxlEn0fMG5Q2g--11" value="" style="shape=stencil(lVrLchw3DPyavbJAgs+z4/yHqyxHqiiSS1Zefx9MVpxdNmd6PDdJixZJEGg0wL3opx+PX74/XIL8eH97/f3h76ev748X/eUSwtPL48Pb07v9dNHPF/307fXt4be31z9fvl5///5lsVx++uP1r+U//HPFiUtpAQX59/qH1lyN///l16v989PLnb13+ZS9uujP2GfndbJv+/bFLR+N9k327duWfSDn9S62CcAcpC7PgEwAqR/wHlAJoLgSB4AXcUIO7ZtTPYWwuMgnEcFJPYdQl8I5RHT5JCK5chKRXUnnENVJPoVQcbGcuXJV56e0Y0Gldu48AUica3UhIqCSLUVBzy4AskJUDEIDFHKGmHqi3QFyIYC6kasf9LYJSOs13QE++Gob4J1WBAS2QsBoMoCQM6Q4eam6SryUUo+cO0Am95CKS4IAZWewHXsECOHkLN0nK6C4Styafd/AHSCxKhGme1gLwTZApzqXXWNbilN4ZxpLeabx7AIhgVyQNlripdFSVBEQSSxli/4J4MmWivQNrABzAwOEiZfW+N0G6BQa6hoDROcjAhLJh5KcKAI88ZIBKtzDmrTbgIxVyADKvFQmbvWuskNbhW8IUBIapfZQWwFCydgA2SNAST4YoI0XVzndl9Z9cgegK1g1GHO61i50NgFVnG8I8CQ0DJDHsluNZsiWqu//bwVkenEGKB4BLONqmM6QqJcMUGGF6CKp09XKLpxBaX2wj6Gg2JqF0L1tIMMKnkpkO2IMCGAFZXEiHNpKDAdATlt0JXYPBXPaAp6RgIUaVCBLWibhLPqhs7nRwh4gwwq565vt1kYw44zaCtnSwhEJAZ4En7EQ6Faj50gyzohRxvC2AsCUwEK9FQEsgYzcIxw6uMBWiE7gpj2NJQPkkb2LULpfiuy4ghXiwLyUsE7nSkNjEQrjPZiYYDXOpAjU6ZydkPBuGaW0CaLKVyiwJeXBZ/JndKuJusy8VJyCW33nkT1AgjNYxeBbgoYjVdoDmQ4OY7Qu4poD0shLKXd63gNAH2d6n6lKA7TxHqyj8MxLDbk1KSXjpeMBLwUefA2p0tooGt7WhI3Rmg4yruEkIbaulXcBY2hY78jasg1A7uS5B4CiGNcs3wNAwxEjJ+OGIjGGPpzbA0BRjJ7nQ+vSvAN03eT2nEmmhlpr5+efRpSjeMVNJZ6kk2M1Ul05R5OuM73dAB9TSHkHscwAxhRSf0Q0QAMqdJzTplFI4HPUhcrGM4RKG+RlBjAB2NDL2LWMFxcObrp0bbECMs/q0sN5BSTaNi0zgJEsQ6Qyca5y4UDPTHXUAKxHmSt1CFz1JWxqgqdJagCBFYSX9tj10R2AkuWkyXzrhXJP9el4Bl/pHM6EKIhpXyi73prVFZC7rNvT9wnG2Yk3BAVnWAYQ1sllrKM+0mi1tgnUxvLWwLYUUTH5QKfGc69ogINuFJSr58E3N8gG8KyTk/mxg5KxNXp5ArCMs0YPh/F8gdIbkps9UzPWU8GTmYlKNi2KWBErn5sEDItChbd1L6BBC2VV60VgHpDpFVsrAqOlTLsf60SgbU103GCNiAeFS8nFuoQ2/v/YSXx73F2xC4h8xJ8w4JQ+ayxqGQQM7T9jQTkS6EzWVCCkWKA60vRWhRymA1YTQw1SmJZxncZ00oXApr2FY4xgH4n/Q8J8FJqP5g4o+tIH8dv2HuNB+gRhzx7q6+FTKwipg8fciv4/sC9dWv7c/n3GqZB0tbptn7C0cn9alYM2RPrL8ba9ovYVOhGykpUw3lh8zi/8B/bT65b0J4ptrTJfL2u6CipM4Q9bqJGFkmHCgbbQpz9LdXRNZKnb1cXNnImygI8WQuWMxz5OKI97lFdC+xmZWZBFsaDfuYyRSbr1mciOOUgA32vqh7n9cPtGz7en5+frF4LuP8dvANmfrt8e0s//AQ==);fillColor=none;strokeColor=#12FF41;" vertex="1" parent="1">
          <mxGeometry x="459.33" y="151.42" width="70.67" height="211.58" as="geometry" />
        </mxCell>
        <mxCell id="g2PJhtoxlEn0fMG5Q2g--12" value="" style="shape=stencil(hZfLbhsxDEW/xltCIvVcp+l/BIhTG3XtwHFff18ODMkhZ3C7G8tzRIq8JDU7efo4vLzvdxw+btfL9/3v4+vtsJMvO+bj+bC/Hm/6tJPnnTy9Xa77b9fLz/Pr/ff7y/Lm8vTj8mvZ4c+diyFQCAvG4e9q6esdOR3Pn5DeKYkhdCUzABqlbIFCLQKgUmILCNUOAN2vW4CJkYVM3VponVqBQCgWqBQTABJFG9eWxqm2ASFOFmAKFQBM0gxQ+wjDNhCp2MTVSh1lOlBzFgoFZEGVY8Na9dAgrBr1aMNamQoIa2vDgQlEYnAGTZNzqXSqGQCZigNUvw0AmmkHVBIQJc1rstIohRICwlD/BFS/IEoqBF4BGZxBhbC2wECtVR2oFkjwDFWoW/EVrWkgbxWCa0yFYYnWQNG5FKmCQ2texfalEqiAMyxpspnOHda0xsSVaK4jbtuAti0bpVyoAnmrxylaII/2vAnkNoQwgTTitg2oA7ZEs1AAYdX9qotSpA7CmnnlUqAM5P34ewCpw76U9NBWS6nCNpMKZaslXQlgoKQ09ptAGltsAzxG4ARk9JFtYPa5CURYcdKHcgYgeMZJ81p6rGwDhboDdAVZyCTOJV0BahXx0lhWkEuRmk3csgLUKoHYyltXUAFxo2K7BndYQKwXBQfgscvZa4nLmNzbQKJgu4ZuISAPPG9HE5CRym0gDKlNQPULXIpttN4JRMrApVh991abEbgUs79Vqs2CLOi8sVFSmwGdIXp5RzwU46oZq01UQH2If74fYf00r1W1iMqn+otGw8OEso1ohRfQ7O8M/5k8FFyHhGWTvO946oifUgx3l6GtGcmhpm39U7LiDLBcop+AAd4gw2jLj9fRB9jqi82/rg+P77234+l0/1z8/L//PtSl+7elPP8D);fillColor=none;strokeColor=#12FF41;" vertex="1" parent="1">
          <mxGeometry x="320.5" y="132.66666666666669" width="38.833333333333336" height="23" as="geometry" />
        </mxCell>
      </root>
    </mxGraphModel>
  </diagram>
</mxfile>
